<?xml version="1.0" encoding="utf-8"?>
<!-- Generator: Adobe Illustrator 26.3.1, SVG Export Plug-In . SVG Version: 6.00 Build 0)  -->
<svg version="1.1" id="Layer_1" xmlns="http://www.w3.org/2000/svg" xmlns:xlink="http://www.w3.org/1999/xlink" x="0px" y="0px"
	 viewBox="0 0 512 512" style="enable-background:new 0 0 512 512;" xml:space="preserve">
<style type="text/css">
	.st0{fill-rule:evenodd;clip-rule:evenodd;}
</style>
<g>
	<path class="st0" d="M168.8,460.8H95.71c-19.73,0-32-23.94-22-40.99l28.56-47.61C117.18,406.5,140.14,435.2,168.8,460.8
		 M197.69,139.67c70.36-59.53,148.63-35.61,214.71-22.79c19.52,3.81,39.48-4.13,51.12-20.3l43.82-57.4c7.07-9.85,6-23.36-2.55-31.94
		c-11-11.04-29.32-9.23-37.95,3.76c-46.88,61.54-39.23,61.93-126.51,41.7c-21.08-4.89-42.98-6.89-64.36-3.44
		C159.49,68.1,72.67,174.75,84.18,298.39L7.1,432.44C-12.88,466.56,11.67,512,51.13,512h255.13
		c102.08,0.25,167.62-66.46,181.15-156.09c14.65-97.28-47.72-182.65-135.85-202.73c-82.13-18.71-166.35,38.3-166.86,122.78
		c-0.36,63.73,45.91,116.71,106.45,126.98c45.84,7.76,92.79-20.33,97.64-66.69c4.85-46.15-31.03-85.11-76.05-85.11
		c-14.09,0-25.5,11.44-25.5,25.6c0,14.12,11.43,25.6,25.55,25.6c14.09,0,25.52,11.44,25.52,25.6c0,14.13-11.43,25.6-25.52,25.6
		c-45.02,0-80.95-38.99-76.13-85.13c4.88-46.39,51.71-74.46,97.54-66.69c60.54,10.26,106.55,63.26,106.19,126.95
		c-0.49,83.03-82.76,140.31-163.82,123.58c-81.31-16.8-142.43-89.01-142.43-175.51C134.15,221.75,158.85,172.54,197.69,139.67"/>
</g>
</svg>
